<?xml version="1.0" ?><!DOCTYPE svg  PUBLIC '-//W3C//DTD SVG 1.1//EN'  'http://www.w3.org/Graphics/SVG/1.1/DTD/svg11.dtd'><svg height="5in" style="shape-rendering:geometricPrecision; text-rendering:geometricPrecision; image-rendering:optimizeQuality; fill-rule:evenodd; clip-rule:evenodd" viewBox="0 0 6.82666 6.82666" width="6.82666in" xml:space="preserve" xmlns="http://www.w3.org/2000/svg" xmlns:xlink="http://www.w3.org/1999/xlink"><defs><style type="text/css">
   <![CDATA[
    .fil1 {fill:none}
    .fil0 {fill:#FFFFFF;fill-rule:nonzero}
   ]]>
  </style></defs><g id="Layer_x0020_1"><path class="fil0" d="M3.24278 4.73319c-0.00234646,-0.0820551 -0.00351969,-0.144177 -0.00351969,-0.185201 0,-0.242638 0.0339921,-0.452457 0.103154,-0.62828 0.0504016,-0.132453 0.13128,-0.266083 0.243811,-0.402051 0.0820472,-0.0984606 0.230909,-0.241465 0.444244,-0.430181 0.214504,-0.189894 0.352823,-0.339929 0.417287,-0.452453 0.0644724,-0.111358 0.096122,-0.234437 0.096122,-0.36689 0,-0.240291 -0.0937756,-0.45128 -0.281323,-0.634138 -0.187543,-0.181689 -0.418457,-0.273114 -0.690398,-0.273114 -0.26374,0 -0.482933,0.0832244 -0.658756,0.247323 -0.176996,0.16528 -0.29187,0.423154 -0.346961,0.773626l-0.635315 -0.076185c0.057437,-0.46887 0.227402,-0.82872 0.509894,-1.07839 0.282492,-0.249673 0.656409,-0.373921 1.12058,-0.373921 0.492311,0 0.884984,0.133626 1.17802,0.402051 0.293039,0.267252 0.439563,0.590772 0.439563,0.97172 0,0.219197 -0.0515748,0.42198 -0.154728,0.607181 -0.10315,0.185205 -0.303591,0.411429 -0.603661,0.676335 -0.201614,0.179343 -0.332894,0.310626 -0.395016,0.395024 -0.062126,0.0855669 -0.107843,0.182854 -0.137146,0.291862 -0.0304724,0.110189 -0.0468858,0.288354 -0.0515748,0.535681l-0.594283 0zm-0.0375118 1.24015l0 -0.704469 0.703299 0 0 0.704469 -0.703299 0z"/></g><rect class="fil1" height="6.82666" width="6.82666"/></svg>